<?xml version="1.0" encoding="UTF-8" standalone="no"?>
<svg
   xmlns:dc="http://purl.org/dc/elements/1.1/"
   xmlns:cc="http://creativecommons.org/ns#"
   xmlns:rdf="http://www.w3.org/1999/02/22-rdf-syntax-ns#"
   xmlns:svg="http://www.w3.org/2000/svg"
   xmlns="http://www.w3.org/2000/svg"
   xmlns:xlink="http://www.w3.org/1999/xlink"
   xmlns:sodipodi="http://sodipodi.sourceforge.net/DTD/sodipodi-0.dtd"
   xmlns:inkscape="http://www.inkscape.org/namespaces/inkscape"
   viewBox="0 0 128 128"
   style="display:inline;enable-background:new"
   version="1.0"
   id="svg11300"
   height="128"
   width="128"
   sodipodi:docname="application_icon_editable.svg"
   inkscape:version="1.0.1 (0767f8302a, 2020-10-17)">
  <sodipodi:namedview
     pagecolor="#ffffff"
     bordercolor="#666666"
     borderopacity="1"
     objecttolerance="10"
     gridtolerance="10"
     guidetolerance="10"
     inkscape:pageopacity="0"
     inkscape:pageshadow="2"
     inkscape:window-width="1312"
     inkscape:window-height="741"
     id="namedview162"
     showgrid="false"
     inkscape:zoom="4.3125"
     inkscape:cx="60.358938"
     inkscape:cy="65.480801"
     inkscape:window-x="54"
     inkscape:window-y="27"
     inkscape:window-maximized="1"
     inkscape:current-layer="svg11300"
     inkscape:document-rotation="0" />
  <defs
     id="defs3">
    <linearGradient
       id="linearGradient1038">
      <stop
         style="stop-color:#c0bfbc;stop-opacity:1"
         offset="0"
         id="stop1026" />
      <stop
         id="stop1028"
         offset="0.04545454"
         style="stop-color:#ffffff;stop-opacity:1" />
      <stop
         id="stop1030"
         offset="0.09090909"
         style="stop-color:#deddda;stop-opacity:1" />
      <stop
         id="stop1032"
         offset="0.90909088"
         style="stop-color:#deddda;stop-opacity:1" />
      <stop
         style="stop-color:#ffffff;stop-opacity:1"
         offset="0.95454544"
         id="stop1034" />
      <stop
         style="stop-color:#c0bfbc;stop-opacity:1"
         offset="1"
         id="stop1036" />
    </linearGradient>
    <clipPath
       id="clipPath2213"
       clipPathUnits="userSpaceOnUse">
      <rect
         ry="8"
         rx="8"
         y="-188"
         x="160"
         height="56"
         width="16"
         id="rect2215"
         style="display:inline;opacity:1;vector-effect:none;fill:none;fill-opacity:1;stroke:#000000;stroke-width:1;stroke-linecap:butt;stroke-linejoin:miter;stroke-miterlimit:4;stroke-dasharray:none;stroke-dashoffset:0;stroke-opacity:1;marker:none;marker-start:none;marker-mid:none;marker-end:none;paint-order:normal;enable-background:new" />
    </clipPath>
    <linearGradient
       gradientTransform="translate(-135.99999)"
       gradientUnits="userSpaceOnUse"
       y2="-276"
       x2="115.99999"
       y1="-276"
       x1="27.99999"
       id="linearGradient1159"
       xlink:href="#linearGradient1038" />
  </defs>
  <metadata
     id="metadata4">
    <rdf:RDF>
      <cc:Work
         rdf:about="">
        <dc:format>image/svg+xml</dc:format>
        <dc:type
           rdf:resource="http://purl.org/dc/dcmitype/StillImage" />
        <dc:creator>
          <cc:Agent>
            <dc:title />
          </cc:Agent>
        </dc:creator>
        <dc:source />
        <cc:license
           rdf:resource="http://creativecommons.org/licenses/by-sa/4.0/" />
        <dc:title />
        <dc:subject>
          <rdf:Bag />
        </dc:subject>
        <dc:date />
        <dc:rights>
          <cc:Agent>
            <dc:title />
          </cc:Agent>
        </dc:rights>
        <dc:publisher>
          <cc:Agent>
            <dc:title />
          </cc:Agent>
        </dc:publisher>
        <dc:identifier />
        <dc:relation />
        <dc:language />
        <dc:coverage />
        <dc:description />
        <dc:contributor>
          <cc:Agent>
            <dc:title />
          </cc:Agent>
        </dc:contributor>
      </cc:Work>
      <cc:License
         rdf:about="http://creativecommons.org/licenses/by-sa/4.0/">
        <cc:permits
           rdf:resource="http://creativecommons.org/ns#Reproduction" />
        <cc:permits
           rdf:resource="http://creativecommons.org/ns#Distribution" />
        <cc:requires
           rdf:resource="http://creativecommons.org/ns#Notice" />
        <cc:requires
           rdf:resource="http://creativecommons.org/ns#Attribution" />
        <cc:permits
           rdf:resource="http://creativecommons.org/ns#DerivativeWorks" />
        <cc:requires
           rdf:resource="http://creativecommons.org/ns#ShareAlike" />
      </cc:License>
    </rdf:RDF>
  </metadata>
  <g
     transform="translate(0,-172)"
     style="display:inline"
     id="layer1">
    <g
       style="display:none"
       id="layer2">
      <g
         id="g9211"
         style="display:inline;enable-background:new">
        <rect
           style="display:inline;overflow:visible;visibility:visible;fill:#f0f0f0;fill-opacity:1;fill-rule:nonzero;stroke:none;stroke-width:0.5;marker:none;enable-background:accumulate"
           id="rect13805"
           width="128"
           height="128"
           x="9.2651362e-08"
           y="172" />
        <circle
           cx="64.000031"
           cy="236"
           r="59.504131"
           id="circle2892"
           style="display:inline;opacity:0.1;vector-effect:none;fill:none;fill-opacity:1;stroke:#000000;stroke-width:0.99000001;stroke-linecap:butt;stroke-linejoin:miter;stroke-miterlimit:4;stroke-dasharray:0.99000001, 0.99000001;stroke-dashoffset:0;stroke-opacity:1;marker:none;marker-start:none;marker-mid:none;marker-end:none;paint-order:normal;enable-background:new" />
        <rect
           ry="7.9292889"
           rx="8.701004"
           y="180.49496"
           x="20.495007"
           height="111.01005"
           width="87.009987"
           id="rect2894"
           style="display:inline;opacity:0.1;vector-effect:none;fill:none;fill-opacity:1;stroke:#000000;stroke-width:0.99000001;stroke-linecap:butt;stroke-linejoin:miter;stroke-miterlimit:4;stroke-dasharray:0.99000001, 0.99000001;stroke-dashoffset:0;stroke-opacity:1;marker:none;marker-start:none;marker-mid:none;marker-end:none;paint-order:normal;enable-background:new" />
        <rect
           ry="7.9238095"
           rx="7.9238095"
           y="184.49524"
           x="12.495266"
           height="103.00952"
           width="103.00952"
           id="rect2896"
           style="display:inline;opacity:0.1;vector-effect:none;fill:none;fill-opacity:1;stroke:#000000;stroke-width:0.99000001;stroke-linecap:butt;stroke-linejoin:miter;stroke-miterlimit:4;stroke-dasharray:0.99000001, 0.99000001;stroke-dashoffset:0;stroke-opacity:1;marker:none;marker-start:none;marker-mid:none;marker-end:none;paint-order:normal;enable-background:new" />
        <rect
           ry="8.701005"
           rx="7.9292889"
           y="200.49496"
           x="8.4950066"
           height="87.010048"
           width="111.01004"
           id="rect2898"
           style="display:inline;opacity:0.1;vector-effect:none;fill:none;fill-opacity:1;stroke:#000000;stroke-width:0.99000001;stroke-linecap:butt;stroke-linejoin:miter;stroke-miterlimit:4;stroke-dasharray:0.99000001, 0.99000001;stroke-dashoffset:0;stroke-opacity:1;marker:none;marker-start:none;marker-mid:none;marker-end:none;paint-order:normal;enable-background:new" />
        <path
           id="path2900"
           d="M 2.6203015e-5,288.99999 H 128.00003"
           style="display:inline;fill:none;stroke:#62a0ea;stroke-width:2;stroke-linecap:butt;stroke-linejoin:miter;stroke-miterlimit:4;stroke-dasharray:none;stroke-opacity:1;enable-background:new" />
      </g>
    </g>
    <g
       style="display:inline"
       id="layer9">
      <rect
         clip-path="none"
         ry="8"
         rx="8"
         y="-294"
         x="-108"
         height="30.25"
         width="88"
         id="rect1167"
         style="opacity:1;vector-effect:none;fill:#1a5fb4;fill-opacity:1;stroke:none;stroke-width:13.71876526;stroke-linecap:butt;stroke-linejoin:miter;stroke-miterlimit:4;stroke-dasharray:none;stroke-dashoffset:0;stroke-opacity:1;marker:none;marker-start:none;marker-mid:none;marker-end:none;paint-order:normal"
         transform="scale(-1)" />
      <g
         transform="matrix(0.25,0,0,0.25,-374,202.04808)"
         clip-path="url(#clipPath2213)"
         id="g8005"
         style="display:inline;enable-background:new" />
      <g
         transform="matrix(0.25,0,0,0.25,-424,202.04808)"
         clip-path="url(#clipPath2213)"
         id="g8015"
         style="display:inline;enable-background:new" />
      <g
         transform="matrix(0.25,0,0,0.25,-414,202.04808)"
         clip-path="url(#clipPath2213)"
         id="g8025"
         style="display:inline;enable-background:new" />
      <g
         transform="matrix(0.25,0,0,0.25,-404,202.04808)"
         clip-path="url(#clipPath2213)"
         id="g8035"
         style="display:inline;enable-background:new" />
      <g
         transform="matrix(0.25,0,0,0.25,-394,202.04808)"
         clip-path="url(#clipPath2213)"
         id="g8045"
         style="display:inline;enable-background:new" />
      <g
         transform="matrix(0.25,0,0,0.25,-384,202.04808)"
         clip-path="url(#clipPath2213)"
         id="g8055"
         style="display:inline;enable-background:new" />
      <rect
         transform="scale(-1)"
         style="opacity:1;vector-effect:none;fill:url(#linearGradient1159);fill-opacity:1;stroke:none;stroke-width:13.71876526;stroke-linecap:butt;stroke-linejoin:miter;stroke-miterlimit:4;stroke-dasharray:none;stroke-dashoffset:0;stroke-opacity:1;marker:none;marker-start:none;marker-mid:none;marker-end:none;paint-order:normal"
         id="rect1151"
         width="88"
         height="40"
         x="-108"
         y="-292"
         rx="8"
         ry="8"
         clip-path="none" />
      <rect
         clip-path="none"
         ry="8"
         rx="8"
         y="-288"
         x="-108"
         height="108"
         width="88"
         id="rect1161"
         style="opacity:1;vector-effect:none;fill:#f6f5f4;fill-opacity:1;stroke:#bbb6aa;stroke-width:0.3;stroke-linecap:butt;stroke-linejoin:miter;stroke-miterlimit:4;stroke-dasharray:none;stroke-dashoffset:0;stroke-opacity:1;marker:none;marker-start:none;marker-mid:none;marker-end:none;paint-order:normal"
         transform="scale(-1)" />
      <g
         transform="translate(-4,2)"
         id="g1153">
        <path
           style="display:inline;opacity:1;fill:#ceccc5;fill-opacity:1;stroke:none;stroke-width:4;stroke-linecap:square;stroke-linejoin:round;stroke-miterlimit:4;stroke-dasharray:none;stroke-dashoffset:0;stroke-opacity:1;enable-background:new"
           d="m 32,188 c -1.10457,0 -2,0.89543 -2,2 0,1.10457 0.89543,2 2,2 1.10457,0 2,-0.89543 2,-2 0,-1.10457 -0.89543,-2 -2,-2 z m 8,0 c -1.10457,0 -2,0.89543 -2,2 0,1.10457 0.89543,2 2,2 1.10457,0 2,-0.89543 2,-2 0,-1.10457 -0.89543,-2 -2,-2 z m 8,0 c -1.10457,0 -2,0.89543 -2,2 0,1.10457 0.89543,2 2,2 1.10457,0 2,-0.89543 2,-2 0,-1.10457 -0.89543,-2 -2,-2 z m 8,0 c -1.10457,0 -2,0.89543 -2,2 0,1.10457 0.89543,2 2,2 1.10457,0 2,-0.89543 2,-2 0,-1.10457 -0.89543,-2 -2,-2 z m 8,0 c -1.10457,0 -2,0.89543 -2,2 0,1.10457 0.89543,2 2,2 1.10457,0 2,-0.89543 2,-2 0,-1.10457 -0.89543,-2 -2,-2 z m 8,0 c -1.10457,0 -2,0.89543 -2,2 0,1.10457 0.89543,2 2,2 1.10457,0 2,-0.89543 2,-2 0,-1.10457 -0.89543,-2 -2,-2 z m 8,0 c -1.10457,0 -2,0.89543 -2,2 0,1.10457 0.89543,2 2,2 1.10457,0 2,-0.89543 2,-2 0,-1.10457 -0.89543,-2 -2,-2 z m 8,0 c -1.10457,0 -2,0.89543 -2,2 0,1.10457 0.89543,2 2,2 1.10457,0 2,-0.89543 2,-2 0,-1.10457 -0.89543,-2 -2,-2 z m 8,0 c -1.10457,0 -2,0.89543 -2,2 0,1.10457 0.89543,2 2,2 1.10457,0 2,-0.89543 2,-2 0,-1.10457 -0.89543,-2 -2,-2 z"
           id="path950-3-7" />
        <circle
           r="2"
           cy="190"
           cx="-104"
           id="path1148"
           style="opacity:1;vector-effect:none;fill:#ceccc5;fill-opacity:1;stroke:none;stroke-width:16;stroke-linecap:butt;stroke-linejoin:round;stroke-miterlimit:4;stroke-dasharray:none;stroke-dashoffset:0;stroke-opacity:1"
           transform="scale(-1,1)" />
        <path
           d="m 112,192 a 2,2 0 0 1 -1.73205,-1 2,2 0 0 1 0,-2 A 2,2 0 0 1 112,188"
           style="opacity:1;vector-effect:none;fill:#ceccc5;fill-opacity:1;stroke:none;stroke-width:16;stroke-linecap:butt;stroke-linejoin:round;stroke-miterlimit:4;stroke-dasharray:none;stroke-dashoffset:0;stroke-opacity:1"
           id="circle16770" />
        <path
           transform="scale(-1,1)"
           d="m -24,192 a 2,2 0 0 1 -1.732051,-1 2,2 0 0 1 0,-2 A 2,2 0 0 1 -24,188"
           style="display:inline;opacity:1;vector-effect:none;fill:#ceccc5;fill-opacity:1;stroke:none;stroke-width:16;stroke-linecap:butt;stroke-linejoin:round;stroke-miterlimit:4;stroke-dasharray:none;stroke-dashoffset:0;stroke-opacity:1;enable-background:new"
           id="circle16770-3" />
      </g>
    </g>
  </g>
  <g
     inkscape:groupmode="layer"
     id="layer3"
     inkscape:label="Lock"
     style="display:inline">
    <g
       transform="matrix(3.5435262,0,0,3.5435262,46.835099,-3617.4193)"
       id="g279">
      <path
         d="m 5,1037.4 c -1.1046,0 -2,0.9 -2,2 v 1 6 1 c 0,1.1 0.8954,2 2,2 h 2 10 2 c 1.105,0 2,-0.9 2,-2 v -7 -1 c 0,-1.1 -0.895,-2 -2,-2 h -2 z"
         fill="#f1c40f"
         id="path265" />
      <path
         d="m 5,1040.4 c -1.1046,0 -2,0.9 -2,2 v 1 6 1 c 0,1.1 0.8954,2 2,2 h 2 10 2 c 1.105,0 2,-0.9 2,-2 v -7 -1 c 0,-1.1 -0.895,-2 -2,-2 h -2 z"
         fill="#f39c12"
         id="path267" />
      <path
         d="m 12,1029.4 c -3.866,0 -7,3.1 -7,7 h 3 c 0,-2.2 1.7909,-4 4,-4 2.209,0 4,1.8 4,4 h 3 c 0,-3.9 -3.134,-7 -7,-7 z"
         fill="#bdc3c7"
         id="path269" />
      <path
         d="m 5,14 v 1 h 14 v -1 z m 0,2 v 1 h 14 v -1 z m 0,2 v 1 h 14 v -1 z m 0,2 v 1 h 14 v -1 z"
         transform="translate(0,1028.4)"
         fill="#e67e22"
         id="path271" />
      <path
         d="m 5,1037.4 v 1 c 0,0.5 0.6716,1 1.5,1 0.8284,0 1.5,-0.5 1.5,-1 v -1 c 0,0.5 -0.6716,1 -1.5,1 -0.8284,0 -1.5,-0.5 -1.5,-1 z"
         fill="#7f8c8d"
         id="path273" />
      <path
         d="m 16,1037.4 v 1 c 0,0.5 0.672,1 1.5,1 0.828,0 1.5,-0.5 1.5,-1 v -1 c 0,0.5 -0.672,1 -1.5,1 -0.828,0 -1.5,-0.5 -1.5,-1 z"
         fill="#7f8c8d"
         id="path275" />
      <path
         d="m 12,2.4375 c -0.351,0 -0.699,0.0338 -1.031,0.0937 C 10.722,2.5758 10.482,2.6441 10.25,2.7188 10.033,2.7886 9.8271,2.8749 9.625,2.9688 9.519,3.018 9.4141,3.0696 9.3125,3.125 9.1806,3.1969 9.0612,3.2932 8.9375,3.375 8.8217,3.4515 8.7019,3.5092 8.5938,3.5938 8.4531,3.7035 8.3139,3.8149 8.1875,3.9375 8.1506,3.9737 8.1294,4.0253 8.0938,4.0625 7.9254,4.2369 7.7625,4.3981 7.625,4.5938 7.4848,4.7931 7.3546,5.0003 7.25,5.2188 7.246,5.2272 7.254,5.2415 7.25,5.25 7.1389,5.4859 7.0341,5.7459 6.9688,6 6.7158,6.5844 6.0264,7 5.2188,7 5.1588,7 5.1356,7.0018 5.0938,7 5.0833,6.9996 5.077,7.0014 5.0625,7 L 5,8 v 1 1 H 8 V 9 8 C 8,7.7239 8.0405,7.4479 8.0938,7.1875 8.4667,5.3648 10.067,4 12,4 c 2.209,0 4,1.7909 4,4 v 1 1 h 3 V 9 8 L 18.938,7 c -0.015,0.0014 -0.021,-4e-4 -0.032,0 H 18.781 C 17.974,7 17.284,6.5844 17.031,6 16.966,5.7459 16.861,5.4859 16.75,5.25 16.746,5.2415 16.754,5.2272 16.75,5.2188 16.645,5.0003 16.515,4.7931 16.375,4.5938 16.237,4.3981 16.075,4.2369 15.906,4.0625 15.87,4.0245 15.851,3.9744 15.812,3.9375 15.686,3.8149 15.547,3.7035 15.406,3.5938 15.302,3.5121 15.174,3.449 15.062,3.375 14.94,3.2941 14.818,3.1962 14.688,3.125 14.587,3.07 14.48,3.0176 14.375,2.9688 14.173,2.8749 13.967,2.7886 13.75,2.7188 13.518,2.6441 13.278,2.5758 13.031,2.5312 12.699,2.4713 12.351,2.4375 12,2.4375 Z"
         transform="translate(0,1028.4)"
         fill="#95a5a6"
         id="path277" />
    </g>
  </g>
</svg>
