<?xml version="1.0" encoding="UTF-8" standalone="no"?>
<svg
   xmlns:dc="http://purl.org/dc/elements/1.1/"
   xmlns:cc="http://creativecommons.org/ns#"
   xmlns:rdf="http://www.w3.org/1999/02/22-rdf-syntax-ns#"
   xmlns:svg="http://www.w3.org/2000/svg"
   xmlns="http://www.w3.org/2000/svg"
   xmlns:sodipodi="http://sodipodi.sourceforge.net/DTD/sodipodi-0.dtd"
   xmlns:inkscape="http://www.inkscape.org/namespaces/inkscape"
   viewBox="0 0 16 16"
   version="1.1"
   id="svg7"
   sodipodi:docname="file-encryption.svg"
   inkscape:version="1.0.1 (3bc2e813f5, 2020-09-07)">
  <metadata
     id="metadata11">
    <rdf:RDF>
      <cc:Work
         rdf:about="">
        <dc:format>image/svg+xml</dc:format>
        <dc:type
           rdf:resource="http://purl.org/dc/dcmitype/StillImage" />
        <dc:title></dc:title>
      </cc:Work>
    </rdf:RDF>
  </metadata>
  <sodipodi:namedview
     pagecolor="#ffffff"
     bordercolor="#666666"
     borderopacity="1"
     objecttolerance="10"
     gridtolerance="10"
     guidetolerance="10"
     inkscape:pageopacity="0"
     inkscape:pageshadow="2"
     inkscape:window-width="1493"
     inkscape:window-height="972"
     id="namedview9"
     showgrid="false"
     showguides="true"
     inkscape:guide-bbox="true"
     inkscape:zoom="49.5625"
     inkscape:cx="8"
     inkscape:cy="8"
     inkscape:window-x="0"
     inkscape:window-y="0"
     inkscape:window-maximized="0"
     inkscape:current-layer="svg7">
    <sodipodi:guide
       position="13.727263,13.009187"
       orientation="0,-1"
       id="guide836" />
    <sodipodi:guide
       position="11.997519,6.3543604"
       orientation="1,0"
       id="guide838" />
  </sodipodi:namedview>
  <defs
     id="defs3">
    <style
       type="text/css"
       id="current-color-scheme">
            .ColorScheme-Text {
                color:#232629;
            }
        </style>
  </defs>
  <path
     class="ColorScheme-Text"
     style="fill:#eff0f1;fill-opacity:1;stroke:none"
     d="m 3,14 v -2 h 2 v 2 z m 4,0 v -2 h 2 v 2 z m 4,0 v -2 h 2 v 2 z M 5,11 V 9 h 2 v 2 z m 4,0 V 9 h 2 v 2 z M 3,9 V 2 H 9 L 13.013871,1.99748 C 12.998338,4.4822531 13,6.4915878 13,9 H 12 C 12.000989,6.9969367 11.99917,4.9938752 11.997519,2.990813 9.3316933,3.0031406 6.6658447,3 4,3 v 6 z"
     id="path5"
     sodipodi:nodetypes="ccccccccccccccccccccccccccccccccccc" />
  <path
     fill="#eff0f1"
     d="m 8.0295886,3.3332261 c -3.8895293,-2.0309962 -1.9447646,-1.01546 0,0 z m 0,0 v 0.761614 h 0.7292867 v -0.761614 z m 0,0.761614 H 7.3003018 v 0.7616141 h 0.7292868 z m 0,0.7616141 v 0.761614 h 0.7292867 v -0.761614 z m 0,0.761614 H 7.3003018 v 0.7616141 h 0.7292868 z m 0,0.7616141 v 0.761614 h 0.7292867 v -0.761614 z m 0,0.761614 H 7.3003018 V 8.6645245 H 8.7588753 V 7.9029105 H 8.0295886 Z"
     id="path865"
     sodipodi:nodetypes="cccccccccccccccccccccccccccccccccc"
     style="stroke-width:0.745276;fill:#eff0f1;fill-opacity:1" />
</svg>
